<?xml version="1.0" standalone="no"?><!DOCTYPE svg PUBLIC "-//W3C//DTD SVG 1.1//EN" "http://www.w3.org/Graphics/SVG/1.1/DTD/svg11.dtd"><svg t="1557990175176" class="icon" style="" viewBox="0 0 1024 1024" version="1.1" xmlns="http://www.w3.org/2000/svg" p-id="1220" xmlns:xlink="http://www.w3.org/1999/xlink" width="200" height="200"><defs><style type="text/css"></style></defs><path d="M453.1 865.7l224-672c9.8-29.3-6.1-61.1-35.4-70.8-29.3-9.8-61.1 6.1-70.8 35.4l-224 672c-9.8 29.3 6.1 61.1 35.4 70.8 29.3 9.8 61-6.1 70.8-35.4z m243.3-225.3c-21.9 21.9-21.9 57.3 0 79.2 21.9 21.9 57.3 21.9 79.2 0l168-168c21.9-21.9 21.9-57.3 0-79.2l-168-168c-21.9-21.9-57.3-21.9-79.2 0-21.9 21.9-21.9 57.3 0 79.2L824.8 512 696.4 640.4zM327.6 383.6c21.9-21.9 21.9-57.3 0-79.2-21.9-21.9-57.3-21.9-79.2 0l-168 168c-21.9 21.9-21.9 57.3 0 79.2l168 168c21.9 21.9 57.3 21.9 79.2 0 21.9-21.9 21.9-57.3 0-79.2L199.2 512l128.4-128.4z" p-id="1221"></path></svg>